<svg width="20" height="20" viewBox="0 0 20 20" fill="none" xmlns="http://www.w3.org/2000/svg">
<path d="M4.16667 15.8333V8.58999C4.16667 8.37666 4.21445 8.17471 4.31001 7.98416C4.40556 7.7936 4.53723 7.63666 4.70501 7.51333L9.19251 4.11499C9.42751 3.93555 9.69584 3.84583 9.99751 3.84583C10.2992 3.84583 10.5692 3.93555 10.8075 4.11499L15.295 7.51249C15.4633 7.63583 15.595 7.79305 15.69 7.98416C15.7856 8.17471 15.8333 8.37666 15.8333 8.58999V15.8333C15.8333 16.0567 15.7503 16.2514 15.5842 16.4175C15.4181 16.5836 15.2233 16.6667 15 16.6667H12.18C11.9889 16.6667 11.8289 16.6022 11.7 16.4733C11.5711 16.3439 11.5067 16.1839 11.5067 15.9933V12.0192C11.5067 11.8286 11.4422 11.6689 11.3133 11.54C11.1839 11.4105 11.0239 11.3458 10.8333 11.3458H9.16667C8.97612 11.3458 8.81639 11.4105 8.68751 11.54C8.55806 11.6689 8.49334 11.8286 8.49334 12.0192V15.9942C8.49334 16.1847 8.42889 16.3444 8.30001 16.4733C8.17112 16.6022 8.01139 16.6667 7.82084 16.6667H5.00001C4.77667 16.6667 4.58195 16.5836 4.41584 16.4175C4.24973 16.2514 4.16667 16.0567 4.16667 15.8333Z" fill="#0E0A07" fill-opacity="0.45"></path>
</svg>