<svg width="169" height="20" viewBox="0 0 169 20" fill="none" xmlns="http://www.w3.org/2000/svg">
<rect x="0.712524" y="0.762207" width="17.3086" height="17.3086" rx="8.6543" stroke="white" stroke-width="1.425"></rect>
<path d="M9.98439 4.72773C9.98439 4.44902 9.74284 4.22308 9.44486 4.22308C9.14688 4.22308 8.90533 4.44902 8.90533 4.72773L9.98439 4.72773ZM9.06335 13.5519C9.27405 13.749 9.61567 13.749 9.82637 13.5519L13.2599 10.3402C13.4706 10.1431 13.4706 9.8236 13.2599 9.62651C13.0492 9.42943 12.7076 9.42943 12.4969 9.62651L9.44486 12.4813L6.39279 9.62651C6.18209 9.42943 5.84047 9.42943 5.62977 9.62651C5.41907 9.82359 5.41907 10.1431 5.62977 10.3402L9.06335 13.5519ZM8.90533 4.72773L8.90533 13.195L9.98439 13.195L9.98439 4.72773L8.90533 4.72773Z" fill="white"></path>
<rect x="52.6963" y="6.67212" width="12.666" height="11.6105" rx="1.90909" stroke="white" stroke-width="1.5"></rect>
<path d="M58.4273 13.104C58.4273 13.3759 58.663 13.5964 58.9537 13.5964C59.2445 13.5964 59.4801 13.3759 59.4801 13.104H58.4273ZM59.326 0.694453C59.1204 0.502158 58.7871 0.502158 58.5815 0.694453L55.2313 3.82809C55.0258 4.02038 55.0258 4.33216 55.2313 4.52446C55.4369 4.71675 55.7702 4.71675 55.9758 4.52446L58.9537 1.739L61.9316 4.52446C62.1372 4.71675 62.4705 4.71675 62.6761 4.52446C62.8817 4.33216 62.8817 4.02038 62.6761 3.82809L59.326 0.694453ZM59.4801 13.104V1.04264H58.4273V13.104H59.4801Z" fill="white"></path>
<path d="M100.037 9.21649L115.037 9.21649" stroke="white" stroke-width="1.5" stroke-linecap="round"></path>
<path d="M107.537 1.9165L107.537 16.9165" stroke="white" stroke-width="1.5" stroke-linecap="round"></path>
<rect x="149.713" y="0.75" width="13.3331" height="13.3331" rx="2" stroke="white" stroke-width="1.5"></rect>
<rect x="154.379" y="4.74976" width="13.3331" height="13.3331" rx="2" stroke="white" stroke-width="1.5"></rect>
</svg>