<svg xmlns="http://www.w3.org/2000/svg" width="21.500" height="15.500" viewBox="0 0 21.500 15.500" fill="none">
  <path d="M 2.75 0 C 2.021 0 1.321 0.29 0.805 0.805 C 0.29 1.321 0 2.021 0 2.75 L 0 12.75 C 0 13.479 0.29 14.179 0.805 14.695 C 1.321 15.21 2.021 15.5 2.75 15.5 L 18.75 15.5 C 19.479 15.5 20.179 15.21 20.695 14.695 C 21.21 14.179 21.5 13.479 21.5 12.75 L 21.5 2.75 C 21.5 2.021 21.21 1.321 20.695 0.805 C 20.179 0.29 19.479 0 18.75 0 L 2.75 0 Z M 17.817 8.251 C 17.885 8.178 17.939 8.093 17.973 7.999 C 18.008 7.906 18.024 7.806 18.02 7.706 C 18.016 7.607 17.992 7.509 17.949 7.418 C 17.907 7.328 17.847 7.247 17.773 7.18 C 17.698 7.113 17.612 7.062 17.518 7.029 C 17.423 6.996 17.323 6.983 17.224 6.989 C 17.124 6.995 17.027 7.021 16.937 7.065 C 16.848 7.11 16.768 7.171 16.703 7.247 L 16.693 7.258 C 16.625 7.331 16.571 7.416 16.537 7.51 C 16.502 7.603 16.486 7.703 16.49 7.803 C 16.494 7.902 16.518 8 16.561 8.091 C 16.603 8.181 16.663 8.262 16.737 8.329 C 16.812 8.396 16.898 8.447 16.992 8.48 C 17.087 8.513 17.187 8.526 17.286 8.52 C 17.386 8.514 17.483 8.488 17.573 8.444 C 17.662 8.399 17.742 8.338 17.807 8.262 L 17.817 8.251 Z M 4.762 7.191 C 4.835 7.257 4.895 7.337 4.937 7.426 C 4.98 7.515 5.004 7.611 5.009 7.71 C 5.014 7.808 5 7.907 4.967 7.999 C 4.934 8.092 4.883 8.178 4.817 8.251 L 4.807 8.262 C 4.742 8.338 4.662 8.399 4.573 8.444 C 4.483 8.488 4.386 8.514 4.286 8.52 C 4.187 8.526 4.087 8.513 3.992 8.48 C 3.898 8.447 3.812 8.396 3.737 8.329 C 3.663 8.262 3.603 8.181 3.561 8.091 C 3.518 8 3.494 7.902 3.49 7.803 C 3.486 7.703 3.502 7.603 3.537 7.51 C 3.571 7.416 3.625 7.331 3.693 7.258 L 3.703 7.247 C 3.836 7.099 4.023 7.011 4.221 7 C 4.42 6.99 4.614 7.059 4.762 7.192 M 10.75 4 C 9.755 4 8.802 4.395 8.098 5.098 C 7.395 5.802 7 6.755 7 7.75 C 7 8.745 7.395 9.698 8.098 10.402 C 8.802 11.105 9.755 11.5 10.75 11.5 C 11.745 11.5 12.698 11.105 13.402 10.402 C 14.105 9.698 14.5 8.745 14.5 7.75 C 14.5 6.755 14.105 5.802 13.402 5.098 C 12.698 4.395 11.745 4 10.75 4 Z" fill="currentColor" fill-rule="evenodd"></path>
</svg>