<svg xmlns="http://www.w3.org/2000/svg" width="84" height="21" viewBox="0 0 84 21" fill="none">
  <path d="M 0.057 0 C 0.362 0.071 0.348 0.044 0.383 0.348 C 0.598 2.194 0.894 4.169 1.347 5.967 C 1.538 6.696 1.742 7.421 1.961 8.141 C 2.119 8.673 2.294 9.354 2.473 9.862 C 3.506 12.743 5.043 16.102 7.694 17.7 C 9.817 18.981 12.464 18.696 14.366 17.153 C 16.379 15.52 17.551 13.254 18.462 10.838 C 19.372 8.362 20.075 5.808 20.561 3.204 C 20.651 2.736 20.924 0.237 21.024 0.056 C 21.105 0.034 21.151 0.01 21.226 0.044 C 21.272 0.163 21.261 3.59 21.264 4.01 L 21.268 14.17 C 21.279 16.447 21.273 18.723 21.251 21 C 20.879 20.827 20.329 20.724 19.929 20.619 C 14.943 19.307 9.619 19.206 4.54 19.944 C 3.028 20.164 1.495 20.587 0.009 20.973 L 0 7.619 L 0.002 3.019 C 0.004 2.078 -0.013 0.928 0.057 0 Z" fill="currentColor" fill-rule="nonzero"></path>
  <path d="M 29.826 19.25 L 29.826 3.083 L 31.878 3.083 L 31.878 17.297 L 38.724 17.297 L 38.724 19.25 L 29.826 19.25 Z" fill="currentColor" fill-rule="nonzero"></path>
  <path d="M 43.752 19.51 C 42.942 19.51 42.209 19.315 41.553 18.924 C 40.911 18.534 40.409 17.991 40.046 17.297 C 39.697 16.588 39.523 15.778 39.523 14.867 L 39.523 7.554 L 41.47 7.554 L 41.47 14.65 C 41.47 15.228 41.581 15.735 41.805 16.169 C 42.042 16.603 42.363 16.943 42.768 17.188 C 43.186 17.434 43.661 17.557 44.191 17.557 C 44.722 17.557 45.189 17.434 45.594 17.188 C 46.013 16.943 46.334 16.588 46.557 16.125 C 46.794 15.662 46.913 15.113 46.913 14.476 L 46.913 7.554 L 48.881 7.554 L 48.881 19.25 L 46.976 19.25 L 46.976 16.971 L 47.29 17.167 C 47.025 17.905 46.571 18.483 45.929 18.903 C 45.301 19.308 44.575 19.51 43.752 19.51 Z" fill="currentColor" fill-rule="nonzero"></path>
  <path d="M 50.851 19.25 L 50.851 7.554 L 52.756 7.554 L 52.756 9.941 L 52.484 9.572 C 52.763 8.834 53.209 8.27 53.823 7.879 C 54.438 7.489 55.128 7.293 55.896 7.293 C 56.775 7.293 57.564 7.546 58.262 8.053 C 58.974 8.559 59.462 9.225 59.727 10.049 L 59.183 10.071 C 59.476 9.159 59.972 8.472 60.669 8.009 C 61.367 7.532 62.142 7.293 62.993 7.293 C 63.775 7.293 64.48 7.481 65.108 7.857 C 65.75 8.234 66.259 8.754 66.636 9.42 C 67.013 10.085 67.201 10.838 67.201 11.677 L 67.201 19.25 L 65.233 19.25 L 65.233 12.328 C 65.233 11.677 65.122 11.127 64.898 10.679 C 64.675 10.23 64.368 9.883 63.977 9.637 C 63.6 9.376 63.154 9.246 62.637 9.246 C 62.135 9.246 61.681 9.376 61.277 9.637 C 60.886 9.883 60.572 10.237 60.334 10.7 C 60.111 11.149 59.999 11.691 59.999 12.328 L 59.999 19.25 L 58.031 19.25 L 58.031 12.328 C 58.031 11.677 57.92 11.127 57.697 10.679 C 57.473 10.23 57.166 9.883 56.775 9.637 C 56.399 9.376 55.952 9.246 55.435 9.246 C 54.933 9.246 54.479 9.376 54.075 9.637 C 53.684 9.883 53.37 10.237 53.133 10.7 C 52.909 11.149 52.798 11.691 52.798 12.328 L 52.798 19.25 L 50.851 19.25 Z" fill="currentColor" fill-rule="nonzero"></path>
  <path d="M 68.92 19.25 L 68.92 7.554 L 70.867 7.554 L 70.867 19.25 L 68.92 19.25 Z M 68.92 5.688 L 68.92 3.083 L 70.867 3.083 L 70.867 5.688 L 68.92 5.688 Z" fill="currentColor" fill-rule="nonzero"></path>
  <path d="M 78.201 19.51 C 77.112 19.51 76.128 19.25 75.249 18.729 C 74.37 18.194 73.672 17.463 73.155 16.538 C 72.639 15.612 72.381 14.563 72.381 13.391 C 72.381 12.219 72.632 11.178 73.134 10.266 C 73.651 9.355 74.349 8.631 75.228 8.096 C 76.107 7.561 77.098 7.293 78.201 7.293 C 79.289 7.293 80.273 7.561 81.153 8.096 C 82.032 8.617 82.723 9.333 83.225 10.244 C 83.742 11.156 84 12.205 84 13.391 C 84 14.577 83.735 15.633 83.204 16.559 C 82.674 17.471 81.969 18.194 81.09 18.729 C 80.225 19.25 79.262 19.51 78.201 19.51 Z M 78.201 17.557 C 78.899 17.557 79.527 17.377 80.085 17.015 C 80.657 16.653 81.104 16.154 81.425 15.518 C 81.76 14.881 81.927 14.172 81.927 13.391 C 81.927 12.595 81.76 11.894 81.425 11.286 C 81.104 10.664 80.657 10.172 80.085 9.81 C 79.527 9.434 78.899 9.246 78.201 9.246 C 77.489 9.246 76.847 9.434 76.275 9.81 C 75.716 10.172 75.27 10.664 74.935 11.286 C 74.6 11.894 74.432 12.595 74.432 13.391 C 74.432 14.172 74.6 14.881 74.935 15.518 C 75.27 16.154 75.716 16.653 76.275 17.015 C 76.847 17.377 77.489 17.557 78.201 17.557 Z" fill="currentColor" fill-rule="nonzero"></path>
</svg>